HIERARCHY
ROOT Hips
{
  OFFSET -55.461 87.2072 -49.3629
  CHANNELS 6 Xposition Yposition Zposition Zrotation Xrotation Yrotation
  JOINT RightUpLeg
  {
    OFFSET -8.9458 -8.66707 0.101652
    CHANNELS 3 Zrotation Xrotation Yrotation
    JOINT RightLeg
    {
      OFFSET 0 -44.4227 1.3727
      CHANNELS 3 Zrotation Xrotation Yrotation
      JOINT RightFoot
      {
        OFFSET 0.253549 -42.0924 -1.46059
        CHANNELS 3 Zrotation Xrotation Yrotation
        JOINT RightToes
        {
          OFFSET 0.04 -4.41509 8.4991
          CHANNELS 3 Zrotation Xrotation Yrotation
          End Site
          {
            OFFSET -0.08 -0.137448 9.77979
          }
        }
      }
    }
  }
  JOINT Spine
  {
    OFFSET 0 11.8905 0
    CHANNELS 3 Zrotation Xrotation Yrotation
    JOINT Spine1
    {
      OFFSET 0 25.6574 0.127663
      CHANNELS 3 Zrotation Xrotation Yrotation
      JOINT HEad
      {
        OFFSET 0 8.73416 0.011341
        CHANNELS 3 Zrotation Xrotation Yrotation
        End Site
        {
          OFFSET -0.29 12.7742 2.51395
        }
      }
      JOINT LeftShoulder1
      {
        OFFSET 8.99 -0.362252 -0.22
        CHANNELS 3 Zrotation Xrotation Yrotation
        JOINT LeftArm
        {
          OFFSET 10.2827 -0.00338 0.322123
          CHANNELS 3 Zrotation Xrotation Yrotation
          JOINT LeftForeArm
          {
            OFFSET 32.7669 0.099144 -1.42434
            CHANNELS 3 Zrotation Xrotation Yrotation
            JOINT LeftHand
            {
              OFFSET 27.5643 0.085362 1.02216
              CHANNELS 3 Zrotation Xrotation Yrotation
              End Site
              {
                OFFSET 16.7443 -0.6 1.50291
              }
            }
          }
        }
      }
      JOINT RightShoulder
      {
        OFFSET -8.99 -0.362252 -0.22
        CHANNELS 3 Zrotation Xrotation Yrotation
        JOINT RightArm
        {
          OFFSET -10.2827 -0.00338 0.322123
          CHANNELS 3 Zrotation Xrotation Yrotation
          JOINT RightForeArm
          {
            OFFSET -32.8971 0.099144 -1.42434
            CHANNELS 3 Zrotation Xrotation Yrotation
            JOINT RightHand
            {
              OFFSET -27.4921 0.085362 1.02216
              CHANNELS 3 Zrotation Xrotation Yrotation
              End Site
              {
                OFFSET -16.6312 -0.6 1.50291
              }
            }
          }
        }
      }
    }
  }
  JOINT LeftUpLeg
  {
    OFFSET 8.9458 -8.66707 0.101652
    CHANNELS 3 Zrotation Xrotation Yrotation
    JOINT LeftLeg
    {
      OFFSET 0 -44.4227 1.3727
      CHANNELS 3 Zrotation Xrotation Yrotation
      JOINT LeftFoot
      {
        OFFSET -0.253549 -42.0924 -1.46059
        CHANNELS 3 Zrotation Xrotation Yrotation
        JOINT LeftToes
        {
          OFFSET -0.04 -4.41509 8.4991
          CHANNELS 3 Zrotation Xrotation Yrotation
          End Site
          {
            OFFSET 0.08 -0.047448 9.77979
          }
        }
      }
    }
  }
}
MOTION
Frames:	21
Frame Time:	0.0166667
-53.2503 103.4 -16.5001 -1.28489 2.31156 -8.60673 -26.207 -16.638 13.7415 12.2856 32.6635 -15.6105 8.17046 10.1561 -1.01577 0.0462048 0.000533964 0.662642 -1.33532 7.69434 3.02491 1.15174 15.4974 5.39479 -9.33468 -19.6146 20.4672 -9.93923e-017 0 -2.98177e-016 -141.45 -55.4864 -70.3748 -13.3541 87.6403 -116.246 27.521 27.395 -6.89082 25.4013 -3.33616 -14.5437 67.177 -15.9821 44.4786 101.527 60.2915 19.6925 -8.18768 29.2877 3.75739 22.5309 -32.5336 -2.13723 -7.40054 36.4347 8.49397 -2.60821 8.35428 0.548748 -2.98177e-015 2.38542e-014 5.56597e-015 
-52.1441 103.862 -16.6534 -1.6575 2.59303 -8.55665 -26.3063 -17.1709 13.4343 15.2481 33.9466 -20.001 7.83093 6.69708 -0.67047 0.0462048 0.000533964 0.662642 -1.43557 7.78765 2.76902 0.983385 15.6668 4.90618 -9.1431 -20.0552 21.1473 -0 0 1.98785e-016 -138.711 -54.0425 -69.3488 -21.2383 87.1891 -106.354 27.4312 27.3606 -7.09181 24.9559 -3.17962 -14.1621 67.6695 -17.8166 42.5266 101.832 60.0946 19.3831 -8.18768 29.2877 3.75739 22.5873 -32.763 -0.982926 -7.17275 36.4039 7.79409 -2.36655 7.69371 0.492065 3.97569e-016 2.54444e-014 7.95139e-015 
-51.4801 104.041 -17.0153 -1.87612 2.53616 -8.51872 -26.4724 -18.0247 12.5735 18.8804 36.2728 -23.8183 7.80493 4.03326 -0.278176 0.0462048 0.000533964 0.662642 -1.86339 7.90571 2.59001 0.698027 15.8541 4.56559 -8.99665 -20.1994 21.6461 -9.93923e-017 -6.36111e-015 -7.95139e-016 -136.163 -52.9567 -68.46 -26.7802 86.6 -98.5895 27.3006 27.326 -7.31301 24.5808 -3.09614 -14.0121 68.0989 -19.6007 40.2805 102.298 59.9071 19.0221 -8.18768 29.2877 3.75739 22.8584 -33.0118 -0.0262728 -7.25886 37.1363 7.27503 -2.64436 5.88988 0.409291 5.56597e-015 2.54444e-014 6.36111e-015 
-51.2039 103.908 -17.558 -1.90424 2.1408 -8.5612 -26.6197 -19.1383 11.2152 22.8115 39.4874 -26.7917 7.92081 2.68756 0.110739 0.0462048 0.000533964 0.662642 -2.59551 8.05073 2.49574 0.288449 16.0626 4.37949 -8.87943 -20.1213 22.0013 1.98785e-016 3.18055e-015 -0 -133.877 -52.3052 -67.6535 -28.8131 85.9445 -94.3639 27.1196 27.3124 -7.45997 24.3395 -3.0961 -14.1163 68.3655 -21.1403 37.9417 102.936 59.7432 18.6253 -8.18768 29.2877 3.75739 23.2609 -33.2482 0.693004 -7.64034 38.5758 7.07229 -3.37059 3.16574 0.272442 7.95139e-016 2.38542e-014 7.15625e-015 
-51.2316 103.435 -18.2487 -1.74219 1.41248 -8.71547 -26.6476 -20.4211 9.60406 26.8276 43.4386 -29.0664 8.03806 2.76154 0.446963 0.0462048 0.000533964 0.662642 -3.53467 8.21509 2.4833 -0.21917 16.2881 4.32026 -8.77358 -19.8929 22.2569 1.98785e-016 3.18055e-015 -3.97569e-016 -131.888 -52.1652 -66.8666 -27.8715 85.336 -93.3581 26.9287 27.3288 -7.46992 24.2623 -3.17243 -14.4393 68.4333 -22.2859 35.7298 103.71 59.615 18.2229 -8.18768 29.2877 3.75739 23.7071 -33.4648 1.11966 -8.29918 40.6136 7.30337 -4.47056 -0.0892088 0.0451133 -2.47179e-030 2.54444e-014 5.56597e-015 
-51.4716 102.619 -19.0609 -1.39803 0.363127 -8.9725 -26.494 -21.7281 8.09504 30.9717 47.8473 -31.1116 8.10268 4.03016 0.702177 0.0462048 0.000533964 0.662642 -4.59399 8.39563 2.54069 -0.789408 16.5272 4.34371 -8.67425 -19.5702 22.4427 7.95139e-016 0 3.97569e-016 -130.215 -52.5938 -66.0493 -25.2005 84.8711 -94.4798 26.8191 27.3606 -7.36821 24.3495 -3.30764 -14.911 68.33 -22.9616 33.8555 104.559 59.5307 17.847 -8.18768 29.2877 3.75739 24.0863 -33.6722 1.20109 -9.21133 43.0786 8.01649 -5.86173 -3.3757 -0.293033 -9.93923e-017 2.62396e-014 6.36111e-015 
-51.8343 101.485 -19.9748 -0.884435 -0.984668 -9.3051 -26.1418 -22.8886 7.00113 35.4717 52.335 -33.5 8.13058 6.11975 0.872316 0.0462048 0.000533964 0.662642 -5.70558 8.5932 2.65542 -1.38966 16.7792 4.41106 -8.59624 -19.1852 22.5657 1.19271e-015 -6.36111e-015 -0 -128.864 -53.6078 -65.1706 -22.2077 84.6082 -96.3861 26.9007 27.3724 -7.27406 24.5846 -3.48357 -15.4611 68.1202 -23.1648 32.4934 105.423 59.4943 17.5183 -8.18768 29.2877 3.75739 24.2875 -33.8977 0.926631 -10.3398 45.7781 9.17009 -7.43004 -6.18158 -0.725883 -3.47873e-016 2.62396e-014 4.77083e-015 
-52.2376 100.09 -20.9744 -0.234312 -2.59102 -9.68563 -25.6039 -23.7508 6.47267 40.5795 56.5376 -36.7166 8.16338 8.64043 0.968988 0.0462048 0.000533964 0.662642 -6.78483 8.80305 2.82228 -1.98274 17.0381 4.50642 -8.56943 -18.746 22.6126 -7.95139e-016 -3.18055e-015 -1.59028e-015 -127.84 -55.1794 -64.2309 -20.2913 84.5771 -97.6804 27.2505 27.3233 -7.3485 24.9474 -3.68995 -16.051 67.8747 -22.9399 31.7638 106.268 59.5032 17.2375 -8.18768 29.2877 3.75739 24.2555 -34.1735 0.362255 -11.6374 48.5355 10.6483 -9.02189 -8.07957 -1.19399 -2.33572e-015 2.50469e-014 6.36111e-015 
-52.6162 98.5049 -22.0424 0.504517 -4.40019 -10.109 -24.931 -24.2094 6.49014 46.423 60.1818 -41.0643 8.21606 11.2434 1.01708 0.0462048 0.000533964 0.662642 -7.74541 9.01507 3.04281 -2.5368 17.2914 4.64137 -8.62678 -18.2473 22.5621 1.98785e-016 0 -7.95139e-016 -127.152 -57.2462 -63.2699 -20.7357 84.776 -97.0343 27.8677 27.1854 -7.71049 25.4195 -3.92768 -16.6834 67.6538 -22.349 31.7265 107.091 59.5484 16.9849 -8.18768 29.2877 3.75739 24.0051 -34.5074 -0.353441 -13.0355 51.1876 12.2871 -10.4747 -8.782 -1.60893 -1.36664e-015 2.54444e-014 5.56597e-015 
-52.9236 96.8005 -23.1578 1.27235 -6.34801 -10.5967 -24.2165 -24.2148 6.94041 52.9543 63.0957 -46.6423 8.22391 13.6357 1.06399 0.0462048 0.000533964 0.662642 -8.5043 9.21502 3.3217 -3.02463 17.5208 4.8484 -8.79166 -17.686 22.3979 1.39149e-015 -3.18055e-015 -3.97569e-016 -126.832 -59.7298 -62.3743 -24.5931 85.1548 -93.3486 28.6627 26.9588 -8.36769 25.9824 -4.206 -17.391 67.5086 -21.4516 32.3867 107.91 59.6146 16.7297 -8.18768 29.2877 3.75739 23.6187 -34.8716 -1.04056 -14.4426 53.5985 13.9114 -11.6677 -8.17533 -1.88702 -1.39149e-015 2.5842e-014 5.56597e-015 
-53.135 95.0388 -24.2974 2.00249 -8.36709 -11.1829 -23.5776 -23.7725 7.70358 59.9448 65.1763 -53.3292 8.02516 15.5784 1.18703 0.0462048 0.000533964 0.662642 -9.00112 9.38799 3.66082 -3.42669 17.7068 5.16604 -9.06998 -17.0768 22.1197 -2.18663e-015 9.54166e-015 1.19271e-015 -126.958 -62.5511 -61.6899 -32.4404 85.6042 -86.013 29.4945 26.6768 -9.20434 26.6128 -4.53474 -18.2093 67.4889 -20.3022 33.7063 108.748 59.6821 16.4385 -8.18768 29.2877 3.75739 23.2235 -35.2035 -1.52694 -15.7525 55.6573 15.3667 -12.5591 -6.31467 -1.98088 4.96962e-016 2.70347e-014 6.36111e-015 
-53.2399 93.2684 -25.4312 2.62419 -10.3924 -11.9029 -23.1224 -22.9333 8.70267 67.02 66.3775 -60.7623 7.42135 16.849 1.47736 0.0462048 0.000533964 0.662642 -9.20063 9.52251 4.04928 -3.72643 17.8351 5.62237 -9.45018 -16.459 21.7454 -1.98785e-016 3.18055e-015 2.38542e-015 -127.693 -65.6404 -61.4478 -43.9001 86.0002 -75.3937 30.2359 26.3944 -10.0334 27.2795 -4.91574 -19.1486 67.6481 -18.9581 35.6124 109.616 59.7301 16.0866 -8.18768 29.2877 3.75739 22.9537 -35.4315 -1.6955 -16.8753 57.3109 16.5508 -13.1778 -3.42022 -1.89184 2.98177e-016 2.62396e-014 6.36111e-015 
-53.2505 91.5435 -26.5414 3.0747 -12.3658 -12.7788 -22.9053 -21.7902 9.89434 73.6889 66.7196 -68.3288 6.27445 17.2418 1.99471 0.0462048 0.000533964 0.662642 -9.10183 9.6123 4.47213 -3.90669 17.9023 6.22264 -9.90928 -15.8926 21.3071 -1.39149e-015 0 -0 -129.362 -68.9351 -62.0311 -57.5093 86.2821 -62.9517 30.8274 26.1631 -10.6842 27.9454 -5.33618 -20.1754 68.0394 -17.4886 38.004 110.514 59.741 15.6609 -8.18768 29.2877 3.75739 22.9197 -35.4731 -1.51677 -17.7738 58.5167 17.4448 -13.5843 0.186461 -1.65769 4.96962e-016 2.8625e-014 4.77083e-015 
-53.1959 89.9256 -27.6273 3.30888 -14.2361 -13.8044 -22.9021 -20.4712 11.2291 79.5095 66.3348 -75.3243 4.62466 16.592 2.71161 0.0462048 0.000533964 0.662642 -8.73806 9.6601 4.91253 -3.95063 17.918 6.94514 -10.4209 -15.4407 20.8442 9.93923e-016 0 7.95139e-016 -132.601 -72.3656 -64.1197 -71.883 86.4736 -50.0574 31.2867 26.0071 -11.0745 28.5709 -5.76712 -21.2136 68.7084 -15.9786 40.7549 111.431 59.7022 15.1595 -8.18768 29.2877 3.75739 23.1792 -35.269 -1.05302 -18.4805 59.258 18.1117 -13.8276 4.1241 -1.33627 -8.94531e-016 2.54444e-014 5.96354e-015 
-53.1087 88.4627 -28.695 3.30459 -15.9569 -14.9392 -23.0137 -19.1207 12.6161 84.312 65.4858 -81.2112 2.73403 14.8533 3.49547 0.0462048 0.000533964 0.662642 -8.16107 9.67635 5.34569 -3.84296 17.9024 7.74684 -10.9614 -15.1477 20.394 -1.98785e-016 -1.59028e-015 7.95139e-016 -138.685 -75.8147 -69.0215 -86.9578 86.597 -36.7264 31.6833 25.9142 -11.2355 29.118 -6.16783 -22.1609 69.6863 -14.522 43.7166 112.352 59.6094 14.5862 -8.18768 29.2877 3.75739 23.7246 -34.831 -0.430817 -19.0936 59.6006 18.6646 -13.9258 7.9709 -0.99723 -1.59028e-015 2.54444e-014 6.36111e-015 
-53.0287 87.1953 -29.7697 3.07408 -17.4845 -16.1144 -23.0915 -17.8896 13.902 88.1839 64.5216 -85.7163 0.949412 12.2254 4.17252 0.0462048 0.000533964 0.662642 -7.45591 9.6769 5.75151 -3.58628 17.8831 8.5742 -11.512 -15.0203 19.9848 3.97569e-016 0 -0 -150.192 -79.0176 -79.3549 -103.326 86.5839 -22.2849 32.1009 25.8466 -11.2831 29.5519 -6.49466 -22.9156 70.9841 -13.2102 46.7244 113.266 59.4667 13.9499 -8.18768 29.2877 3.75739 24.4997 -34.2324 0.203641 -19.7109 59.6424 19.2007 -13.8874 11.3324 -0.709595 1.98785e-016 2.54444e-014 6.75868e-015 
-52.9974 86.156 -30.8887 2.66197 -18.7794 -17.2464 -22.9935 -16.9173 14.888 91.3404 63.7961 -88.8277 -0.495722 9.16037 4.6247 0.0462048 0.000533964 0.662642 -6.72938 9.6782 6.12051 -3.20607 17.8868 9.37589 -12.057 -15.02 19.6293 1.98785e-016 -3.18055e-015 -0 -171.292 -81.3369 -99.3385 -119.997 86.2889 -7.604 32.6055 25.7605 -11.3541 29.8431 -6.71127 -23.4013 72.591 -12.1211 49.6111 114.168 59.287 13.2629 -8.18768 29.2877 3.75739 25.4218 -33.5842 0.730498 -20.3705 59.493 19.7427 -13.7453 13.8704 -0.52973 1.19271e-015 2.22639e-014 6.36111e-015 
-53.0508 85.3759 -32.0893 2.13688 -19.8117 -18.2521 -22.646 -16.3087 15.378 93.9831 63.5666 -90.7572 -1.58594 6.22528 4.83453 0.0462048 0.000533964 0.662642 -6.0908 9.69129 6.45357 -2.7485 17.9279 10.1124 -12.5815 -15.069 19.3204 -2.98177e-016 0 -7.95139e-016 158.958 -81.6965 -128.099 -134.173 85.6202 4.64366 33.2224 25.6279 -11.5387 29.9706 -6.79706 -23.5831 74.4727 -11.3123 52.2232 115.054 59.0896 12.5431 -8.18768 29.2877 3.75739 26.4011 -32.9939 1.08495 -21.0158 59.2456 20.2141 -13.5847 15.3201 -0.489335 1.59028e-015 3.49861e-014 4.37326e-015 
-53.2163 84.8871 -33.3938 1.58131 -20.562 -19.0504 -22.0901 -16.1093 15.2463 96.2184 63.9035 -91.8779 -2.47199 3.8997 4.86097 0.0462048 0.000533964 0.662642 -5.63014 9.71632 6.75591 -2.27146 17.9998 10.7594 -13.0671 -15.0687 19.0336 -9.93923e-017 0 -0 134.243 -79.8448 -152.028 -144.235 84.6274 12.962 33.9213 25.451 -11.8345 29.9268 -6.75184 -23.4723 76.5734 -10.8165 54.4392 115.926 58.8954 11.8095 -8.18768 29.2877 3.75739 27.3539 -32.529 1.26158 -21.5055 58.9559 20.4678 -13.5453 15.5042 -0.591811 -3.18055e-015 2.8625e-014 5.56597e-015 
-53.5064 84.7128 -34.7976 1.07316 -21.0194 -19.5772 -21.4866 -16.2888 14.5 98.0115 64.6553 -92.5848 -3.3467 2.42902 4.79588 0.0462048 0.000533964 0.662642 -5.38969 9.74028 7.03006 -1.82928 18.074 11.307 -13.4897 -14.9223 18.735 4.96962e-017 -1.59028e-015 -0 119.988 -76.8433 -165.772 -150.748 83.4487 17.996 34.6181 25.2657 -12.1453 29.7202 -6.59521 -23.121 78.8224 -10.6384 56.1825 116.798 58.7203 11.0793 -8.18768 29.2877 3.75739 28.2246 -32.2032 1.30035 -21.6727 58.6381 20.3624 -13.8005 14.3463 -0.823139 -2.18663e-015 2.54444e-014 7.15625e-015 
-53.9132 84.8492 -36.2641 0.663792 -21.1713 -19.7995 -21.0641 -16.7494 13.297 99.1624 65.5036 -93.1107 -4.36681 1.79794 4.73384 0.0462048 0.000533964 0.662642 -5.33386 9.73895 7.27179 -1.45469 18.1041 11.7549 -13.8222 -14.5556 18.3954 9.93923e-017 -1.59028e-015 3.97569e-016 112.34 -73.5943 -173.241 -154.931 82.2287 20.9971 35.1977 25.1308 -12.325 29.3808 -6.36219 -22.6094 81.1382 -10.7496 57.4274 117.697 58.5686 10.3546 -8.18768 29.2877 3.75739 29.0149 -31.9865 1.26686 -21.4059 58.2658 19.8524 -14.5191 11.9009 -1.17016 -3.97569e-015 2.70347e-014 3.97569e-015 
